%TF.GenerationSoftware,KiCad,Pcbnew,7.0.5*%
%TF.CreationDate,2023-10-26T18:16:14+09:00*%
%TF.ProjectId,clover_timer_p,636c6f76-6572-45f7-9469-6d65725f702e,rev?*%
%TF.SameCoordinates,Original*%
%TF.FileFunction,Copper,L1,Top*%
%TF.FilePolarity,Positive*%
%FSLAX46Y46*%
G04 Gerber Fmt 4.6, Leading zero omitted, Abs format (unit mm)*
G04 Created by KiCad (PCBNEW 7.0.5) date 2023-10-26 18:16:14*
%MOMM*%
%LPD*%
G01*
G04 APERTURE LIST*
G04 Aperture macros list*
%AMRoundRect*
0 Rectangle with rounded corners*
0 $1 Rounding radius*
0 $2 $3 $4 $5 $6 $7 $8 $9 X,Y pos of 4 corners*
0 Add a 4 corners polygon primitive as box body*
4,1,4,$2,$3,$4,$5,$6,$7,$8,$9,$2,$3,0*
0 Add four circle primitives for the rounded corners*
1,1,$1+$1,$2,$3*
1,1,$1+$1,$4,$5*
1,1,$1+$1,$6,$7*
1,1,$1+$1,$8,$9*
0 Add four rect primitives between the rounded corners*
20,1,$1+$1,$2,$3,$4,$5,0*
20,1,$1+$1,$4,$5,$6,$7,0*
20,1,$1+$1,$6,$7,$8,$9,0*
20,1,$1+$1,$8,$9,$2,$3,0*%
%AMRotRect*
0 Rectangle, with rotation*
0 The origin of the aperture is its center*
0 $1 length*
0 $2 width*
0 $3 Rotation angle, in degrees counterclockwise*
0 Add horizontal line*
21,1,$1,$2,0,0,$3*%
G04 Aperture macros list end*
%TA.AperFunction,SMDPad,CuDef*%
%ADD10RoundRect,1.125000X-2.625000X-8.875000X2.625000X-8.875000X2.625000X8.875000X-2.625000X8.875000X0*%
%TD*%
%TA.AperFunction,ComponentPad*%
%ADD11C,2.000000*%
%TD*%
%TA.AperFunction,ComponentPad*%
%ADD12RotRect,2.000000X2.000000X100.000000*%
%TD*%
%TA.AperFunction,SMDPad,CuDef*%
%ADD13RoundRect,0.150000X-0.675000X-0.150000X0.675000X-0.150000X0.675000X0.150000X-0.675000X0.150000X0*%
%TD*%
%TA.AperFunction,ComponentPad*%
%ADD14C,1.500000*%
%TD*%
%TA.AperFunction,ViaPad*%
%ADD15C,0.800000*%
%TD*%
%TA.AperFunction,Conductor*%
%ADD16C,0.400000*%
%TD*%
G04 APERTURE END LIST*
D10*
%TO.P,J3,1,Pin_1*%
%TO.N,+3V0*%
X132750000Y-60500000D03*
%TD*%
D11*
%TO.P,BZ9,2,+*%
%TO.N,+3V0*%
X180431759Y-121475961D03*
D12*
%TO.P,BZ9,1,-*%
%TO.N,Net-(BZ1--)*%
X182168241Y-131324039D03*
%TD*%
D13*
%TO.P,IC9,8,GND*%
%TO.N,GND*%
X184225000Y-135095000D03*
%TO.P,IC9,7,PA0*%
%TO.N,unconnected-(IC1-PA0-Pad7)*%
X184225000Y-136365000D03*
%TO.P,IC9,6,PA4*%
%TO.N,unconnected-(IC1-PA4-Pad6)*%
X184225000Y-137635000D03*
%TO.P,IC9,5,PA3*%
%TO.N,Net-(BZ1--)*%
X184225000Y-138905000D03*
%TO.P,IC9,4,PA5*%
%TO.N,unconnected-(IC1-PA5-Pad4)*%
X178975000Y-138905000D03*
%TO.P,IC9,3,PA6*%
%TO.N,Net-(IC1-PA6)*%
X178975000Y-137635000D03*
%TO.P,IC9,2,PA7*%
%TO.N,Net-(IC1-PA7)*%
X178975000Y-136365000D03*
%TO.P,IC9,1,VDD*%
%TO.N,+3V0*%
X178975000Y-135095000D03*
%TD*%
D14*
%TO.P,SW17,2,2*%
%TO.N,Net-(IC1-PA7)*%
X172000000Y-144100000D03*
X167000000Y-144100000D03*
%TO.P,SW17,1,1*%
%TO.N,GND*%
X172000000Y-147100000D03*
X167000000Y-147100000D03*
%TD*%
%TO.P,SW18,2,2*%
%TO.N,Net-(IC1-PA6)*%
X185025000Y-144075000D03*
X180025000Y-144075000D03*
%TO.P,SW18,1,1*%
%TO.N,GND*%
X185025000Y-147075000D03*
X180025000Y-147075000D03*
%TD*%
D10*
%TO.P,J17,1,Pin_1*%
%TO.N,+3V0*%
X166750000Y-128500000D03*
%TD*%
D11*
%TO.P,BZ8,2,+*%
%TO.N,+3V0*%
X146431759Y-121475961D03*
D12*
%TO.P,BZ8,1,-*%
%TO.N,Net-(BZ1--)*%
X148168241Y-131324039D03*
%TD*%
D13*
%TO.P,IC8,8,GND*%
%TO.N,GND*%
X150225000Y-135095000D03*
%TO.P,IC8,7,PA0*%
%TO.N,unconnected-(IC1-PA0-Pad7)*%
X150225000Y-136365000D03*
%TO.P,IC8,6,PA4*%
%TO.N,unconnected-(IC1-PA4-Pad6)*%
X150225000Y-137635000D03*
%TO.P,IC8,5,PA3*%
%TO.N,Net-(BZ1--)*%
X150225000Y-138905000D03*
%TO.P,IC8,4,PA5*%
%TO.N,unconnected-(IC1-PA5-Pad4)*%
X144975000Y-138905000D03*
%TO.P,IC8,3,PA6*%
%TO.N,Net-(IC1-PA6)*%
X144975000Y-137635000D03*
%TO.P,IC8,2,PA7*%
%TO.N,Net-(IC1-PA7)*%
X144975000Y-136365000D03*
%TO.P,IC8,1,VDD*%
%TO.N,+3V0*%
X144975000Y-135095000D03*
%TD*%
D14*
%TO.P,SW15,2,2*%
%TO.N,Net-(IC1-PA7)*%
X138000000Y-144100000D03*
X133000000Y-144100000D03*
%TO.P,SW15,1,1*%
%TO.N,GND*%
X138000000Y-147100000D03*
X133000000Y-147100000D03*
%TD*%
%TO.P,SW16,2,2*%
%TO.N,Net-(IC1-PA6)*%
X151025000Y-144075000D03*
X146025000Y-144075000D03*
%TO.P,SW16,1,1*%
%TO.N,GND*%
X151025000Y-147075000D03*
X146025000Y-147075000D03*
%TD*%
D10*
%TO.P,J15,1,Pin_1*%
%TO.N,+3V0*%
X132750000Y-128500000D03*
%TD*%
D11*
%TO.P,BZ7,2,+*%
%TO.N,+3V0*%
X112431759Y-121475961D03*
D12*
%TO.P,BZ7,1,-*%
%TO.N,Net-(BZ1--)*%
X114168241Y-131324039D03*
%TD*%
D13*
%TO.P,IC7,8,GND*%
%TO.N,GND*%
X116225000Y-135095000D03*
%TO.P,IC7,7,PA0*%
%TO.N,unconnected-(IC1-PA0-Pad7)*%
X116225000Y-136365000D03*
%TO.P,IC7,6,PA4*%
%TO.N,unconnected-(IC1-PA4-Pad6)*%
X116225000Y-137635000D03*
%TO.P,IC7,5,PA3*%
%TO.N,Net-(BZ1--)*%
X116225000Y-138905000D03*
%TO.P,IC7,4,PA5*%
%TO.N,unconnected-(IC1-PA5-Pad4)*%
X110975000Y-138905000D03*
%TO.P,IC7,3,PA6*%
%TO.N,Net-(IC1-PA6)*%
X110975000Y-137635000D03*
%TO.P,IC7,2,PA7*%
%TO.N,Net-(IC1-PA7)*%
X110975000Y-136365000D03*
%TO.P,IC7,1,VDD*%
%TO.N,+3V0*%
X110975000Y-135095000D03*
%TD*%
D14*
%TO.P,SW13,2,2*%
%TO.N,Net-(IC1-PA7)*%
X104000000Y-144100000D03*
X99000000Y-144100000D03*
%TO.P,SW13,1,1*%
%TO.N,GND*%
X104000000Y-147100000D03*
X99000000Y-147100000D03*
%TD*%
%TO.P,SW14,2,2*%
%TO.N,Net-(IC1-PA6)*%
X117025000Y-144075000D03*
X112025000Y-144075000D03*
%TO.P,SW14,1,1*%
%TO.N,GND*%
X117025000Y-147075000D03*
X112025000Y-147075000D03*
%TD*%
D10*
%TO.P,J13,1,Pin_1*%
%TO.N,+3V0*%
X98750000Y-128500000D03*
%TD*%
D11*
%TO.P,BZ6,2,+*%
%TO.N,+3V0*%
X180431759Y-87475961D03*
D12*
%TO.P,BZ6,1,-*%
%TO.N,Net-(BZ1--)*%
X182168241Y-97324039D03*
%TD*%
D13*
%TO.P,IC6,8,GND*%
%TO.N,GND*%
X184225000Y-101095000D03*
%TO.P,IC6,7,PA0*%
%TO.N,unconnected-(IC1-PA0-Pad7)*%
X184225000Y-102365000D03*
%TO.P,IC6,6,PA4*%
%TO.N,unconnected-(IC1-PA4-Pad6)*%
X184225000Y-103635000D03*
%TO.P,IC6,5,PA3*%
%TO.N,Net-(BZ1--)*%
X184225000Y-104905000D03*
%TO.P,IC6,4,PA5*%
%TO.N,unconnected-(IC1-PA5-Pad4)*%
X178975000Y-104905000D03*
%TO.P,IC6,3,PA6*%
%TO.N,Net-(IC1-PA6)*%
X178975000Y-103635000D03*
%TO.P,IC6,2,PA7*%
%TO.N,Net-(IC1-PA7)*%
X178975000Y-102365000D03*
%TO.P,IC6,1,VDD*%
%TO.N,+3V0*%
X178975000Y-101095000D03*
%TD*%
D14*
%TO.P,SW11,2,2*%
%TO.N,Net-(IC1-PA7)*%
X172000000Y-110100000D03*
X167000000Y-110100000D03*
%TO.P,SW11,1,1*%
%TO.N,GND*%
X172000000Y-113100000D03*
X167000000Y-113100000D03*
%TD*%
%TO.P,SW12,2,2*%
%TO.N,Net-(IC1-PA6)*%
X185025000Y-110075000D03*
X180025000Y-110075000D03*
%TO.P,SW12,1,1*%
%TO.N,GND*%
X185025000Y-113075000D03*
X180025000Y-113075000D03*
%TD*%
D10*
%TO.P,J11,1,Pin_1*%
%TO.N,+3V0*%
X166750000Y-94500000D03*
%TD*%
D11*
%TO.P,BZ5,2,+*%
%TO.N,+3V0*%
X146431759Y-87475961D03*
D12*
%TO.P,BZ5,1,-*%
%TO.N,Net-(BZ1--)*%
X148168241Y-97324039D03*
%TD*%
D13*
%TO.P,IC5,8,GND*%
%TO.N,GND*%
X150225000Y-101095000D03*
%TO.P,IC5,7,PA0*%
%TO.N,unconnected-(IC1-PA0-Pad7)*%
X150225000Y-102365000D03*
%TO.P,IC5,6,PA4*%
%TO.N,unconnected-(IC1-PA4-Pad6)*%
X150225000Y-103635000D03*
%TO.P,IC5,5,PA3*%
%TO.N,Net-(BZ1--)*%
X150225000Y-104905000D03*
%TO.P,IC5,4,PA5*%
%TO.N,unconnected-(IC1-PA5-Pad4)*%
X144975000Y-104905000D03*
%TO.P,IC5,3,PA6*%
%TO.N,Net-(IC1-PA6)*%
X144975000Y-103635000D03*
%TO.P,IC5,2,PA7*%
%TO.N,Net-(IC1-PA7)*%
X144975000Y-102365000D03*
%TO.P,IC5,1,VDD*%
%TO.N,+3V0*%
X144975000Y-101095000D03*
%TD*%
D14*
%TO.P,SW9,2,2*%
%TO.N,Net-(IC1-PA7)*%
X138000000Y-110100000D03*
X133000000Y-110100000D03*
%TO.P,SW9,1,1*%
%TO.N,GND*%
X138000000Y-113100000D03*
X133000000Y-113100000D03*
%TD*%
%TO.P,SW10,2,2*%
%TO.N,Net-(IC1-PA6)*%
X151025000Y-110075000D03*
X146025000Y-110075000D03*
%TO.P,SW10,1,1*%
%TO.N,GND*%
X151025000Y-113075000D03*
X146025000Y-113075000D03*
%TD*%
D10*
%TO.P,J9,1,Pin_1*%
%TO.N,+3V0*%
X132750000Y-94500000D03*
%TD*%
D11*
%TO.P,BZ4,2,+*%
%TO.N,+3V0*%
X112431759Y-87475961D03*
D12*
%TO.P,BZ4,1,-*%
%TO.N,Net-(BZ1--)*%
X114168241Y-97324039D03*
%TD*%
D13*
%TO.P,IC4,8,GND*%
%TO.N,GND*%
X116225000Y-101095000D03*
%TO.P,IC4,7,PA0*%
%TO.N,unconnected-(IC1-PA0-Pad7)*%
X116225000Y-102365000D03*
%TO.P,IC4,6,PA4*%
%TO.N,unconnected-(IC1-PA4-Pad6)*%
X116225000Y-103635000D03*
%TO.P,IC4,5,PA3*%
%TO.N,Net-(BZ1--)*%
X116225000Y-104905000D03*
%TO.P,IC4,4,PA5*%
%TO.N,unconnected-(IC1-PA5-Pad4)*%
X110975000Y-104905000D03*
%TO.P,IC4,3,PA6*%
%TO.N,Net-(IC1-PA6)*%
X110975000Y-103635000D03*
%TO.P,IC4,2,PA7*%
%TO.N,Net-(IC1-PA7)*%
X110975000Y-102365000D03*
%TO.P,IC4,1,VDD*%
%TO.N,+3V0*%
X110975000Y-101095000D03*
%TD*%
D14*
%TO.P,SW7,2,2*%
%TO.N,Net-(IC1-PA7)*%
X104000000Y-110100000D03*
X99000000Y-110100000D03*
%TO.P,SW7,1,1*%
%TO.N,GND*%
X104000000Y-113100000D03*
X99000000Y-113100000D03*
%TD*%
%TO.P,SW8,2,2*%
%TO.N,Net-(IC1-PA6)*%
X117025000Y-110075000D03*
X112025000Y-110075000D03*
%TO.P,SW8,1,1*%
%TO.N,GND*%
X117025000Y-113075000D03*
X112025000Y-113075000D03*
%TD*%
D10*
%TO.P,J7,1,Pin_1*%
%TO.N,+3V0*%
X98750000Y-94500000D03*
%TD*%
D11*
%TO.P,BZ3,2,+*%
%TO.N,+3V0*%
X180431759Y-53475961D03*
D12*
%TO.P,BZ3,1,-*%
%TO.N,Net-(BZ1--)*%
X182168241Y-63324039D03*
%TD*%
D13*
%TO.P,IC3,8,GND*%
%TO.N,GND*%
X184225000Y-67095000D03*
%TO.P,IC3,7,PA0*%
%TO.N,unconnected-(IC1-PA0-Pad7)*%
X184225000Y-68365000D03*
%TO.P,IC3,6,PA4*%
%TO.N,unconnected-(IC1-PA4-Pad6)*%
X184225000Y-69635000D03*
%TO.P,IC3,5,PA3*%
%TO.N,Net-(BZ1--)*%
X184225000Y-70905000D03*
%TO.P,IC3,4,PA5*%
%TO.N,unconnected-(IC1-PA5-Pad4)*%
X178975000Y-70905000D03*
%TO.P,IC3,3,PA6*%
%TO.N,Net-(IC1-PA6)*%
X178975000Y-69635000D03*
%TO.P,IC3,2,PA7*%
%TO.N,Net-(IC1-PA7)*%
X178975000Y-68365000D03*
%TO.P,IC3,1,VDD*%
%TO.N,+3V0*%
X178975000Y-67095000D03*
%TD*%
D14*
%TO.P,SW5,2,2*%
%TO.N,Net-(IC1-PA7)*%
X172000000Y-76100000D03*
X167000000Y-76100000D03*
%TO.P,SW5,1,1*%
%TO.N,GND*%
X172000000Y-79100000D03*
X167000000Y-79100000D03*
%TD*%
%TO.P,SW6,2,2*%
%TO.N,Net-(IC1-PA6)*%
X185025000Y-76075000D03*
X180025000Y-76075000D03*
%TO.P,SW6,1,1*%
%TO.N,GND*%
X185025000Y-79075000D03*
X180025000Y-79075000D03*
%TD*%
D10*
%TO.P,J5,1,Pin_1*%
%TO.N,+3V0*%
X166750000Y-60500000D03*
%TD*%
D11*
%TO.P,BZ2,2,+*%
%TO.N,+3V0*%
X146431759Y-53475961D03*
D12*
%TO.P,BZ2,1,-*%
%TO.N,Net-(BZ1--)*%
X148168241Y-63324039D03*
%TD*%
D13*
%TO.P,IC2,8,GND*%
%TO.N,GND*%
X150225000Y-67095000D03*
%TO.P,IC2,7,PA0*%
%TO.N,unconnected-(IC1-PA0-Pad7)*%
X150225000Y-68365000D03*
%TO.P,IC2,6,PA4*%
%TO.N,unconnected-(IC1-PA4-Pad6)*%
X150225000Y-69635000D03*
%TO.P,IC2,5,PA3*%
%TO.N,Net-(BZ1--)*%
X150225000Y-70905000D03*
%TO.P,IC2,4,PA5*%
%TO.N,unconnected-(IC1-PA5-Pad4)*%
X144975000Y-70905000D03*
%TO.P,IC2,3,PA6*%
%TO.N,Net-(IC1-PA6)*%
X144975000Y-69635000D03*
%TO.P,IC2,2,PA7*%
%TO.N,Net-(IC1-PA7)*%
X144975000Y-68365000D03*
%TO.P,IC2,1,VDD*%
%TO.N,+3V0*%
X144975000Y-67095000D03*
%TD*%
D14*
%TO.P,SW3,2,2*%
%TO.N,Net-(IC1-PA7)*%
X138000000Y-76100000D03*
X133000000Y-76100000D03*
%TO.P,SW3,1,1*%
%TO.N,GND*%
X138000000Y-79100000D03*
X133000000Y-79100000D03*
%TD*%
%TO.P,SW4,2,2*%
%TO.N,Net-(IC1-PA6)*%
X151025000Y-76075000D03*
X146025000Y-76075000D03*
%TO.P,SW4,1,1*%
%TO.N,GND*%
X151025000Y-79075000D03*
X146025000Y-79075000D03*
%TD*%
%TO.P,SW2,1,1*%
%TO.N,GND*%
X112025000Y-79075000D03*
X117025000Y-79075000D03*
%TO.P,SW2,2,2*%
%TO.N,Net-(IC1-PA6)*%
X112025000Y-76075000D03*
X117025000Y-76075000D03*
%TD*%
D13*
%TO.P,IC1,1,VDD*%
%TO.N,+3V0*%
X110975000Y-67095000D03*
%TO.P,IC1,2,PA7*%
%TO.N,Net-(IC1-PA7)*%
X110975000Y-68365000D03*
%TO.P,IC1,3,PA6*%
%TO.N,Net-(IC1-PA6)*%
X110975000Y-69635000D03*
%TO.P,IC1,4,PA5*%
%TO.N,unconnected-(IC1-PA5-Pad4)*%
X110975000Y-70905000D03*
%TO.P,IC1,5,PA3*%
%TO.N,Net-(BZ1--)*%
X116225000Y-70905000D03*
%TO.P,IC1,6,PA4*%
%TO.N,unconnected-(IC1-PA4-Pad6)*%
X116225000Y-69635000D03*
%TO.P,IC1,7,PA0*%
%TO.N,unconnected-(IC1-PA0-Pad7)*%
X116225000Y-68365000D03*
%TO.P,IC1,8,GND*%
%TO.N,GND*%
X116225000Y-67095000D03*
%TD*%
D12*
%TO.P,BZ1,1,-*%
%TO.N,Net-(BZ1--)*%
X114168241Y-63324039D03*
D11*
%TO.P,BZ1,2,+*%
%TO.N,+3V0*%
X112431759Y-53475961D03*
%TD*%
D14*
%TO.P,SW1,1,1*%
%TO.N,GND*%
X99000000Y-79100000D03*
X104000000Y-79100000D03*
%TO.P,SW1,2,2*%
%TO.N,Net-(IC1-PA7)*%
X99000000Y-76100000D03*
X104000000Y-76100000D03*
%TD*%
D10*
%TO.P,J1,1,Pin_1*%
%TO.N,+3V0*%
X98750000Y-60500000D03*
%TD*%
D15*
%TO.N,GND*%
X185700000Y-135100000D03*
X151700000Y-135100000D03*
X117700000Y-135100000D03*
X185700000Y-101100000D03*
X151700000Y-101100000D03*
X117700000Y-101100000D03*
X185700000Y-67100000D03*
X151700000Y-67100000D03*
X117700000Y-67100000D03*
%TD*%
D16*
%TO.N,Net-(IC1-PA6)*%
X178975000Y-137635000D02*
X177365000Y-137635000D01*
%TO.N,+3V0*%
X166750000Y-125250000D02*
X166750000Y-128500000D01*
%TO.N,Net-(IC1-PA6)*%
X178075000Y-144075000D02*
X180025000Y-144075000D01*
%TO.N,Net-(BZ1--)*%
X184624039Y-131324039D02*
X182168241Y-131324039D01*
%TO.N,+3V0*%
X171095000Y-135095000D02*
X178975000Y-135095000D01*
%TO.N,Net-(IC1-PA7)*%
X177135000Y-136365000D02*
X178975000Y-136365000D01*
%TO.N,Net-(IC1-PA6)*%
X176700000Y-142700000D02*
X178075000Y-144075000D01*
%TO.N,Net-(BZ1--)*%
X184225000Y-138905000D02*
X185495000Y-138905000D01*
%TO.N,+3V0*%
X166750000Y-128500000D02*
X166750000Y-130750000D01*
%TO.N,Net-(IC1-PA7)*%
X172000000Y-141500000D02*
X177135000Y-136365000D01*
X172000000Y-144100000D02*
X172000000Y-141500000D01*
%TO.N,GND*%
X185695000Y-135095000D02*
X185700000Y-135100000D01*
%TO.N,Net-(BZ1--)*%
X185495000Y-138905000D02*
X186800000Y-137600000D01*
%TO.N,Net-(IC1-PA6)*%
X176700000Y-138300000D02*
X176700000Y-142700000D01*
%TO.N,Net-(BZ1--)*%
X186800000Y-133500000D02*
X184624039Y-131324039D01*
%TO.N,GND*%
X184225000Y-135095000D02*
X185695000Y-135095000D01*
%TO.N,Net-(IC1-PA6)*%
X177365000Y-137635000D02*
X176700000Y-138300000D01*
%TO.N,Net-(BZ1--)*%
X186800000Y-137600000D02*
X186800000Y-133500000D01*
%TO.N,+3V0*%
X166750000Y-130750000D02*
X171095000Y-135095000D01*
X180431759Y-121475961D02*
X170524039Y-121475961D01*
X170524039Y-121475961D02*
X166750000Y-125250000D01*
%TO.N,Net-(IC1-PA6)*%
X144975000Y-137635000D02*
X143365000Y-137635000D01*
%TO.N,+3V0*%
X132750000Y-125250000D02*
X132750000Y-128500000D01*
%TO.N,Net-(IC1-PA6)*%
X144075000Y-144075000D02*
X146025000Y-144075000D01*
%TO.N,Net-(BZ1--)*%
X150624039Y-131324039D02*
X148168241Y-131324039D01*
%TO.N,+3V0*%
X137095000Y-135095000D02*
X144975000Y-135095000D01*
%TO.N,Net-(IC1-PA7)*%
X143135000Y-136365000D02*
X144975000Y-136365000D01*
%TO.N,Net-(IC1-PA6)*%
X142700000Y-142700000D02*
X144075000Y-144075000D01*
%TO.N,Net-(BZ1--)*%
X150225000Y-138905000D02*
X151495000Y-138905000D01*
%TO.N,+3V0*%
X132750000Y-128500000D02*
X132750000Y-130750000D01*
%TO.N,Net-(IC1-PA7)*%
X138000000Y-141500000D02*
X143135000Y-136365000D01*
X138000000Y-144100000D02*
X138000000Y-141500000D01*
%TO.N,GND*%
X151695000Y-135095000D02*
X151700000Y-135100000D01*
%TO.N,Net-(BZ1--)*%
X151495000Y-138905000D02*
X152800000Y-137600000D01*
%TO.N,Net-(IC1-PA6)*%
X142700000Y-138300000D02*
X142700000Y-142700000D01*
%TO.N,Net-(BZ1--)*%
X152800000Y-133500000D02*
X150624039Y-131324039D01*
%TO.N,GND*%
X150225000Y-135095000D02*
X151695000Y-135095000D01*
%TO.N,Net-(IC1-PA6)*%
X143365000Y-137635000D02*
X142700000Y-138300000D01*
%TO.N,Net-(BZ1--)*%
X152800000Y-137600000D02*
X152800000Y-133500000D01*
%TO.N,+3V0*%
X132750000Y-130750000D02*
X137095000Y-135095000D01*
X146431759Y-121475961D02*
X136524039Y-121475961D01*
X136524039Y-121475961D02*
X132750000Y-125250000D01*
%TO.N,Net-(IC1-PA6)*%
X110975000Y-137635000D02*
X109365000Y-137635000D01*
%TO.N,+3V0*%
X98750000Y-125250000D02*
X98750000Y-128500000D01*
%TO.N,Net-(IC1-PA6)*%
X110075000Y-144075000D02*
X112025000Y-144075000D01*
%TO.N,Net-(BZ1--)*%
X116624039Y-131324039D02*
X114168241Y-131324039D01*
%TO.N,+3V0*%
X103095000Y-135095000D02*
X110975000Y-135095000D01*
%TO.N,Net-(IC1-PA7)*%
X109135000Y-136365000D02*
X110975000Y-136365000D01*
%TO.N,Net-(IC1-PA6)*%
X108700000Y-142700000D02*
X110075000Y-144075000D01*
%TO.N,Net-(BZ1--)*%
X116225000Y-138905000D02*
X117495000Y-138905000D01*
%TO.N,+3V0*%
X98750000Y-128500000D02*
X98750000Y-130750000D01*
%TO.N,Net-(IC1-PA7)*%
X104000000Y-141500000D02*
X109135000Y-136365000D01*
X104000000Y-144100000D02*
X104000000Y-141500000D01*
%TO.N,GND*%
X117695000Y-135095000D02*
X117700000Y-135100000D01*
%TO.N,Net-(BZ1--)*%
X117495000Y-138905000D02*
X118800000Y-137600000D01*
%TO.N,Net-(IC1-PA6)*%
X108700000Y-138300000D02*
X108700000Y-142700000D01*
%TO.N,Net-(BZ1--)*%
X118800000Y-133500000D02*
X116624039Y-131324039D01*
%TO.N,GND*%
X116225000Y-135095000D02*
X117695000Y-135095000D01*
%TO.N,Net-(IC1-PA6)*%
X109365000Y-137635000D02*
X108700000Y-138300000D01*
%TO.N,Net-(BZ1--)*%
X118800000Y-137600000D02*
X118800000Y-133500000D01*
%TO.N,+3V0*%
X98750000Y-130750000D02*
X103095000Y-135095000D01*
X112431759Y-121475961D02*
X102524039Y-121475961D01*
X102524039Y-121475961D02*
X98750000Y-125250000D01*
%TO.N,Net-(IC1-PA6)*%
X178975000Y-103635000D02*
X177365000Y-103635000D01*
%TO.N,+3V0*%
X166750000Y-91250000D02*
X166750000Y-94500000D01*
%TO.N,Net-(IC1-PA6)*%
X178075000Y-110075000D02*
X180025000Y-110075000D01*
%TO.N,Net-(BZ1--)*%
X184624039Y-97324039D02*
X182168241Y-97324039D01*
%TO.N,+3V0*%
X171095000Y-101095000D02*
X178975000Y-101095000D01*
%TO.N,Net-(IC1-PA7)*%
X177135000Y-102365000D02*
X178975000Y-102365000D01*
%TO.N,Net-(IC1-PA6)*%
X176700000Y-108700000D02*
X178075000Y-110075000D01*
%TO.N,Net-(BZ1--)*%
X184225000Y-104905000D02*
X185495000Y-104905000D01*
%TO.N,+3V0*%
X166750000Y-94500000D02*
X166750000Y-96750000D01*
%TO.N,Net-(IC1-PA7)*%
X172000000Y-107500000D02*
X177135000Y-102365000D01*
X172000000Y-110100000D02*
X172000000Y-107500000D01*
%TO.N,GND*%
X185695000Y-101095000D02*
X185700000Y-101100000D01*
%TO.N,Net-(BZ1--)*%
X185495000Y-104905000D02*
X186800000Y-103600000D01*
%TO.N,Net-(IC1-PA6)*%
X176700000Y-104300000D02*
X176700000Y-108700000D01*
%TO.N,Net-(BZ1--)*%
X186800000Y-99500000D02*
X184624039Y-97324039D01*
%TO.N,GND*%
X184225000Y-101095000D02*
X185695000Y-101095000D01*
%TO.N,Net-(IC1-PA6)*%
X177365000Y-103635000D02*
X176700000Y-104300000D01*
%TO.N,Net-(BZ1--)*%
X186800000Y-103600000D02*
X186800000Y-99500000D01*
%TO.N,+3V0*%
X166750000Y-96750000D02*
X171095000Y-101095000D01*
X180431759Y-87475961D02*
X170524039Y-87475961D01*
X170524039Y-87475961D02*
X166750000Y-91250000D01*
%TO.N,Net-(IC1-PA6)*%
X144975000Y-103635000D02*
X143365000Y-103635000D01*
%TO.N,+3V0*%
X132750000Y-91250000D02*
X132750000Y-94500000D01*
%TO.N,Net-(IC1-PA6)*%
X144075000Y-110075000D02*
X146025000Y-110075000D01*
%TO.N,Net-(BZ1--)*%
X150624039Y-97324039D02*
X148168241Y-97324039D01*
%TO.N,+3V0*%
X137095000Y-101095000D02*
X144975000Y-101095000D01*
%TO.N,Net-(IC1-PA7)*%
X143135000Y-102365000D02*
X144975000Y-102365000D01*
%TO.N,Net-(IC1-PA6)*%
X142700000Y-108700000D02*
X144075000Y-110075000D01*
%TO.N,Net-(BZ1--)*%
X150225000Y-104905000D02*
X151495000Y-104905000D01*
%TO.N,+3V0*%
X132750000Y-94500000D02*
X132750000Y-96750000D01*
%TO.N,Net-(IC1-PA7)*%
X138000000Y-107500000D02*
X143135000Y-102365000D01*
X138000000Y-110100000D02*
X138000000Y-107500000D01*
%TO.N,GND*%
X151695000Y-101095000D02*
X151700000Y-101100000D01*
%TO.N,Net-(BZ1--)*%
X151495000Y-104905000D02*
X152800000Y-103600000D01*
%TO.N,Net-(IC1-PA6)*%
X142700000Y-104300000D02*
X142700000Y-108700000D01*
%TO.N,Net-(BZ1--)*%
X152800000Y-99500000D02*
X150624039Y-97324039D01*
%TO.N,GND*%
X150225000Y-101095000D02*
X151695000Y-101095000D01*
%TO.N,Net-(IC1-PA6)*%
X143365000Y-103635000D02*
X142700000Y-104300000D01*
%TO.N,Net-(BZ1--)*%
X152800000Y-103600000D02*
X152800000Y-99500000D01*
%TO.N,+3V0*%
X132750000Y-96750000D02*
X137095000Y-101095000D01*
X146431759Y-87475961D02*
X136524039Y-87475961D01*
X136524039Y-87475961D02*
X132750000Y-91250000D01*
%TO.N,Net-(IC1-PA6)*%
X110975000Y-103635000D02*
X109365000Y-103635000D01*
%TO.N,+3V0*%
X98750000Y-91250000D02*
X98750000Y-94500000D01*
%TO.N,Net-(IC1-PA6)*%
X110075000Y-110075000D02*
X112025000Y-110075000D01*
%TO.N,Net-(BZ1--)*%
X116624039Y-97324039D02*
X114168241Y-97324039D01*
%TO.N,+3V0*%
X103095000Y-101095000D02*
X110975000Y-101095000D01*
%TO.N,Net-(IC1-PA7)*%
X109135000Y-102365000D02*
X110975000Y-102365000D01*
%TO.N,Net-(IC1-PA6)*%
X108700000Y-108700000D02*
X110075000Y-110075000D01*
%TO.N,Net-(BZ1--)*%
X116225000Y-104905000D02*
X117495000Y-104905000D01*
%TO.N,+3V0*%
X98750000Y-94500000D02*
X98750000Y-96750000D01*
%TO.N,Net-(IC1-PA7)*%
X104000000Y-107500000D02*
X109135000Y-102365000D01*
X104000000Y-110100000D02*
X104000000Y-107500000D01*
%TO.N,GND*%
X117695000Y-101095000D02*
X117700000Y-101100000D01*
%TO.N,Net-(BZ1--)*%
X117495000Y-104905000D02*
X118800000Y-103600000D01*
%TO.N,Net-(IC1-PA6)*%
X108700000Y-104300000D02*
X108700000Y-108700000D01*
%TO.N,Net-(BZ1--)*%
X118800000Y-99500000D02*
X116624039Y-97324039D01*
%TO.N,GND*%
X116225000Y-101095000D02*
X117695000Y-101095000D01*
%TO.N,Net-(IC1-PA6)*%
X109365000Y-103635000D02*
X108700000Y-104300000D01*
%TO.N,Net-(BZ1--)*%
X118800000Y-103600000D02*
X118800000Y-99500000D01*
%TO.N,+3V0*%
X98750000Y-96750000D02*
X103095000Y-101095000D01*
X112431759Y-87475961D02*
X102524039Y-87475961D01*
X102524039Y-87475961D02*
X98750000Y-91250000D01*
%TO.N,Net-(IC1-PA6)*%
X178975000Y-69635000D02*
X177365000Y-69635000D01*
%TO.N,+3V0*%
X166750000Y-57250000D02*
X166750000Y-60500000D01*
%TO.N,Net-(IC1-PA6)*%
X178075000Y-76075000D02*
X180025000Y-76075000D01*
%TO.N,Net-(BZ1--)*%
X184624039Y-63324039D02*
X182168241Y-63324039D01*
%TO.N,+3V0*%
X171095000Y-67095000D02*
X178975000Y-67095000D01*
%TO.N,Net-(IC1-PA7)*%
X177135000Y-68365000D02*
X178975000Y-68365000D01*
%TO.N,Net-(IC1-PA6)*%
X176700000Y-74700000D02*
X178075000Y-76075000D01*
%TO.N,Net-(BZ1--)*%
X184225000Y-70905000D02*
X185495000Y-70905000D01*
%TO.N,+3V0*%
X166750000Y-60500000D02*
X166750000Y-62750000D01*
%TO.N,Net-(IC1-PA7)*%
X172000000Y-73500000D02*
X177135000Y-68365000D01*
X172000000Y-76100000D02*
X172000000Y-73500000D01*
%TO.N,GND*%
X185695000Y-67095000D02*
X185700000Y-67100000D01*
%TO.N,Net-(BZ1--)*%
X185495000Y-70905000D02*
X186800000Y-69600000D01*
%TO.N,Net-(IC1-PA6)*%
X176700000Y-70300000D02*
X176700000Y-74700000D01*
%TO.N,Net-(BZ1--)*%
X186800000Y-65500000D02*
X184624039Y-63324039D01*
%TO.N,GND*%
X184225000Y-67095000D02*
X185695000Y-67095000D01*
%TO.N,Net-(IC1-PA6)*%
X177365000Y-69635000D02*
X176700000Y-70300000D01*
%TO.N,Net-(BZ1--)*%
X186800000Y-69600000D02*
X186800000Y-65500000D01*
%TO.N,+3V0*%
X166750000Y-62750000D02*
X171095000Y-67095000D01*
X180431759Y-53475961D02*
X170524039Y-53475961D01*
X170524039Y-53475961D02*
X166750000Y-57250000D01*
%TO.N,Net-(IC1-PA6)*%
X144975000Y-69635000D02*
X143365000Y-69635000D01*
%TO.N,+3V0*%
X132750000Y-57250000D02*
X132750000Y-60500000D01*
%TO.N,Net-(IC1-PA6)*%
X144075000Y-76075000D02*
X146025000Y-76075000D01*
%TO.N,Net-(BZ1--)*%
X150624039Y-63324039D02*
X148168241Y-63324039D01*
%TO.N,+3V0*%
X137095000Y-67095000D02*
X144975000Y-67095000D01*
%TO.N,Net-(IC1-PA7)*%
X143135000Y-68365000D02*
X144975000Y-68365000D01*
%TO.N,Net-(IC1-PA6)*%
X142700000Y-74700000D02*
X144075000Y-76075000D01*
%TO.N,Net-(BZ1--)*%
X150225000Y-70905000D02*
X151495000Y-70905000D01*
%TO.N,+3V0*%
X132750000Y-60500000D02*
X132750000Y-62750000D01*
%TO.N,Net-(IC1-PA7)*%
X138000000Y-73500000D02*
X143135000Y-68365000D01*
X138000000Y-76100000D02*
X138000000Y-73500000D01*
%TO.N,GND*%
X151695000Y-67095000D02*
X151700000Y-67100000D01*
%TO.N,Net-(BZ1--)*%
X151495000Y-70905000D02*
X152800000Y-69600000D01*
%TO.N,Net-(IC1-PA6)*%
X142700000Y-70300000D02*
X142700000Y-74700000D01*
%TO.N,Net-(BZ1--)*%
X152800000Y-65500000D02*
X150624039Y-63324039D01*
%TO.N,GND*%
X150225000Y-67095000D02*
X151695000Y-67095000D01*
%TO.N,Net-(IC1-PA6)*%
X143365000Y-69635000D02*
X142700000Y-70300000D01*
%TO.N,Net-(BZ1--)*%
X152800000Y-69600000D02*
X152800000Y-65500000D01*
%TO.N,+3V0*%
X132750000Y-62750000D02*
X137095000Y-67095000D01*
X146431759Y-53475961D02*
X136524039Y-53475961D01*
X136524039Y-53475961D02*
X132750000Y-57250000D01*
X102524039Y-53475961D02*
X98750000Y-57250000D01*
X112431759Y-53475961D02*
X102524039Y-53475961D01*
X103095000Y-67095000D02*
X110975000Y-67095000D01*
X98750000Y-62750000D02*
X103095000Y-67095000D01*
X98750000Y-60500000D02*
X98750000Y-62750000D01*
X98750000Y-57250000D02*
X98750000Y-60500000D01*
%TO.N,GND*%
X116225000Y-67095000D02*
X117695000Y-67095000D01*
X117695000Y-67095000D02*
X117700000Y-67100000D01*
%TO.N,Net-(BZ1--)*%
X116624039Y-63324039D02*
X114168241Y-63324039D01*
X116225000Y-70905000D02*
X117495000Y-70905000D01*
X118800000Y-65500000D02*
X116624039Y-63324039D01*
X118800000Y-69600000D02*
X118800000Y-65500000D01*
X117495000Y-70905000D02*
X118800000Y-69600000D01*
%TO.N,Net-(IC1-PA7)*%
X109135000Y-68365000D02*
X110975000Y-68365000D01*
X104000000Y-73500000D02*
X109135000Y-68365000D01*
X104000000Y-76100000D02*
X104000000Y-73500000D01*
%TO.N,Net-(IC1-PA6)*%
X110075000Y-76075000D02*
X112025000Y-76075000D01*
X108700000Y-74700000D02*
X110075000Y-76075000D01*
X108700000Y-70300000D02*
X108700000Y-74700000D01*
X109365000Y-69635000D02*
X108700000Y-70300000D01*
X110975000Y-69635000D02*
X109365000Y-69635000D01*
%TD*%
M02*
