%TF.GenerationSoftware,KiCad,Pcbnew,7.0.5*%
%TF.CreationDate,2023-10-26T18:16:15+09:00*%
%TF.ProjectId,clover_timer_p,636c6f76-6572-45f7-9469-6d65725f702e,rev?*%
%TF.SameCoordinates,Original*%
%TF.FileFunction,Soldermask,Bot*%
%TF.FilePolarity,Negative*%
%FSLAX46Y46*%
G04 Gerber Fmt 4.6, Leading zero omitted, Abs format (unit mm)*
G04 Created by KiCad (PCBNEW 7.0.5) date 2023-10-26 18:16:15*
%MOMM*%
%LPD*%
G01*
G04 APERTURE LIST*
G04 Aperture macros list*
%AMRotRect*
0 Rectangle, with rotation*
0 The origin of the aperture is its center*
0 $1 length*
0 $2 width*
0 $3 Rotation angle, in degrees counterclockwise*
0 Add horizontal line*
21,1,$1,$2,0,0,$3*%
G04 Aperture macros list end*
%ADD10C,2.000000*%
%ADD11RotRect,2.000000X2.000000X100.000000*%
%ADD12C,1.500000*%
%ADD13C,17.500000*%
G04 APERTURE END LIST*
D10*
%TO.C,BZ9*%
X180431759Y-121475961D03*
D11*
X182168241Y-131324039D03*
%TD*%
D12*
%TO.C,SW17*%
X172000000Y-144100000D03*
X167000000Y-144100000D03*
X172000000Y-147100000D03*
X167000000Y-147100000D03*
%TD*%
D13*
%TO.C,J18*%
X168100000Y-128100000D03*
%TD*%
D12*
%TO.C,SW18*%
X185025000Y-144075000D03*
X180025000Y-144075000D03*
X185025000Y-147075000D03*
X180025000Y-147075000D03*
%TD*%
D10*
%TO.C,BZ8*%
X146431759Y-121475961D03*
D11*
X148168241Y-131324039D03*
%TD*%
D12*
%TO.C,SW15*%
X138000000Y-144100000D03*
X133000000Y-144100000D03*
X138000000Y-147100000D03*
X133000000Y-147100000D03*
%TD*%
D13*
%TO.C,J16*%
X134100000Y-128100000D03*
%TD*%
D12*
%TO.C,SW16*%
X151025000Y-144075000D03*
X146025000Y-144075000D03*
X151025000Y-147075000D03*
X146025000Y-147075000D03*
%TD*%
D10*
%TO.C,BZ7*%
X112431759Y-121475961D03*
D11*
X114168241Y-131324039D03*
%TD*%
D12*
%TO.C,SW13*%
X104000000Y-144100000D03*
X99000000Y-144100000D03*
X104000000Y-147100000D03*
X99000000Y-147100000D03*
%TD*%
D13*
%TO.C,J14*%
X100100000Y-128100000D03*
%TD*%
D12*
%TO.C,SW14*%
X117025000Y-144075000D03*
X112025000Y-144075000D03*
X117025000Y-147075000D03*
X112025000Y-147075000D03*
%TD*%
D10*
%TO.C,BZ6*%
X180431759Y-87475961D03*
D11*
X182168241Y-97324039D03*
%TD*%
D12*
%TO.C,SW11*%
X172000000Y-110100000D03*
X167000000Y-110100000D03*
X172000000Y-113100000D03*
X167000000Y-113100000D03*
%TD*%
D13*
%TO.C,J12*%
X168100000Y-94100000D03*
%TD*%
D12*
%TO.C,SW12*%
X185025000Y-110075000D03*
X180025000Y-110075000D03*
X185025000Y-113075000D03*
X180025000Y-113075000D03*
%TD*%
D10*
%TO.C,BZ5*%
X146431759Y-87475961D03*
D11*
X148168241Y-97324039D03*
%TD*%
D12*
%TO.C,SW9*%
X138000000Y-110100000D03*
X133000000Y-110100000D03*
X138000000Y-113100000D03*
X133000000Y-113100000D03*
%TD*%
D13*
%TO.C,J10*%
X134100000Y-94100000D03*
%TD*%
D12*
%TO.C,SW10*%
X151025000Y-110075000D03*
X146025000Y-110075000D03*
X151025000Y-113075000D03*
X146025000Y-113075000D03*
%TD*%
D10*
%TO.C,BZ4*%
X112431759Y-87475961D03*
D11*
X114168241Y-97324039D03*
%TD*%
D12*
%TO.C,SW7*%
X104000000Y-110100000D03*
X99000000Y-110100000D03*
X104000000Y-113100000D03*
X99000000Y-113100000D03*
%TD*%
D13*
%TO.C,J8*%
X100100000Y-94100000D03*
%TD*%
D12*
%TO.C,SW8*%
X117025000Y-110075000D03*
X112025000Y-110075000D03*
X117025000Y-113075000D03*
X112025000Y-113075000D03*
%TD*%
D10*
%TO.C,BZ3*%
X180431759Y-53475961D03*
D11*
X182168241Y-63324039D03*
%TD*%
D12*
%TO.C,SW5*%
X172000000Y-76100000D03*
X167000000Y-76100000D03*
X172000000Y-79100000D03*
X167000000Y-79100000D03*
%TD*%
D13*
%TO.C,J6*%
X168100000Y-60100000D03*
%TD*%
D12*
%TO.C,SW6*%
X185025000Y-76075000D03*
X180025000Y-76075000D03*
X185025000Y-79075000D03*
X180025000Y-79075000D03*
%TD*%
D10*
%TO.C,BZ2*%
X146431759Y-53475961D03*
D11*
X148168241Y-63324039D03*
%TD*%
D12*
%TO.C,SW3*%
X138000000Y-76100000D03*
X133000000Y-76100000D03*
X138000000Y-79100000D03*
X133000000Y-79100000D03*
%TD*%
D13*
%TO.C,J4*%
X134100000Y-60100000D03*
%TD*%
D12*
%TO.C,SW4*%
X151025000Y-76075000D03*
X146025000Y-76075000D03*
X151025000Y-79075000D03*
X146025000Y-79075000D03*
%TD*%
%TO.C,SW2*%
X112025000Y-79075000D03*
X117025000Y-79075000D03*
X112025000Y-76075000D03*
X117025000Y-76075000D03*
%TD*%
D11*
%TO.C,BZ1*%
X114168241Y-63324039D03*
D10*
X112431759Y-53475961D03*
%TD*%
D12*
%TO.C,SW1*%
X99000000Y-79100000D03*
X104000000Y-79100000D03*
X99000000Y-76100000D03*
X104000000Y-76100000D03*
%TD*%
D13*
%TO.C,J2*%
X100100000Y-60100000D03*
%TD*%
M02*
