M48
; DRILL file {KiCad 7.0.5} date Thu Oct 26 18:16:18 2023
; FORMAT={-:-/ absolute / metric / decimal}
; #@! TF.CreationDate,2023-10-26T18:16:18+09:00
; #@! TF.GenerationSoftware,Kicad,Pcbnew,7.0.5
; #@! TF.FileFunction,MixedPlating,1,2
FMAT,2
METRIC
; #@! TA.AperFunction,Plated,PTH,ViaDrill
T1C0.400
; #@! TA.AperFunction,Plated,PTH,ComponentDrill
T2C1.000
%
G90
G05
T1
X117.7Y-67.1
X117.7Y-101.1
X117.7Y-135.1
X151.7Y-67.1
X151.7Y-101.1
X151.7Y-135.1
X185.7Y-67.1
X185.7Y-101.1
X185.7Y-135.1
T2
X99.0Y-76.1
X99.0Y-79.1
X99.0Y-110.1
X99.0Y-113.1
X99.0Y-144.1
X99.0Y-147.1
X104.0Y-76.1
X104.0Y-79.1
X104.0Y-110.1
X104.0Y-113.1
X104.0Y-144.1
X104.0Y-147.1
X112.025Y-76.075
X112.025Y-79.075
X112.025Y-110.075
X112.025Y-113.075
X112.025Y-144.075
X112.025Y-147.075
X112.432Y-53.476
X112.432Y-87.476
X112.432Y-121.476
X114.168Y-63.324
X114.168Y-97.324
X114.168Y-131.324
X117.025Y-76.075
X117.025Y-79.075
X117.025Y-110.075
X117.025Y-113.075
X117.025Y-144.075
X117.025Y-147.075
X133.0Y-76.1
X133.0Y-79.1
X133.0Y-110.1
X133.0Y-113.1
X133.0Y-144.1
X133.0Y-147.1
X138.0Y-76.1
X138.0Y-79.1
X138.0Y-110.1
X138.0Y-113.1
X138.0Y-144.1
X138.0Y-147.1
X146.025Y-76.075
X146.025Y-79.075
X146.025Y-110.075
X146.025Y-113.075
X146.025Y-144.075
X146.025Y-147.075
X146.432Y-53.476
X146.432Y-87.476
X146.432Y-121.476
X148.168Y-63.324
X148.168Y-97.324
X148.168Y-131.324
X151.025Y-76.075
X151.025Y-79.075
X151.025Y-110.075
X151.025Y-113.075
X151.025Y-144.075
X151.025Y-147.075
X167.0Y-76.1
X167.0Y-79.1
X167.0Y-110.1
X167.0Y-113.1
X167.0Y-144.1
X167.0Y-147.1
X172.0Y-76.1
X172.0Y-79.1
X172.0Y-110.1
X172.0Y-113.1
X172.0Y-144.1
X172.0Y-147.1
X180.025Y-76.075
X180.025Y-79.075
X180.025Y-110.075
X180.025Y-113.075
X180.025Y-144.075
X180.025Y-147.075
X180.432Y-53.476
X180.432Y-87.476
X180.432Y-121.476
X182.168Y-63.324
X182.168Y-97.324
X182.168Y-131.324
X185.025Y-76.075
X185.025Y-79.075
X185.025Y-110.075
X185.025Y-113.075
X185.025Y-144.075
X185.025Y-147.075
T0
M30
