%TF.GenerationSoftware,KiCad,Pcbnew,7.0.5*%
%TF.CreationDate,2023-10-26T18:16:15+09:00*%
%TF.ProjectId,clover_timer_p,636c6f76-6572-45f7-9469-6d65725f702e,rev?*%
%TF.SameCoordinates,Original*%
%TF.FileFunction,Profile,NP*%
%FSLAX46Y46*%
G04 Gerber Fmt 4.6, Leading zero omitted, Abs format (unit mm)*
G04 Created by KiCad (PCBNEW 7.0.5) date 2023-10-26 18:16:15*
%MOMM*%
%LPD*%
G01*
G04 APERTURE LIST*
%TA.AperFunction,Profile*%
%ADD10C,0.050000*%
%TD*%
%TA.AperFunction,Profile*%
%ADD11C,0.100000*%
%TD*%
G04 APERTURE END LIST*
D10*
X158000000Y-69000000D02*
G75*
G03*
X156000000Y-69000000I-1000000J0D01*
G01*
X143000000Y-116000000D02*
X153000000Y-116000000D01*
X127000000Y-118000000D02*
X137000000Y-118000000D01*
X143000000Y-116000000D02*
G75*
G03*
X143000000Y-118000000I0J-1000000D01*
G01*
X137000000Y-116000000D02*
X127000000Y-116000000D01*
X137000000Y-118000000D02*
G75*
G03*
X137000000Y-116000000I0J1000000D01*
G01*
X143000000Y-118000000D02*
X153000000Y-118000000D01*
X103000000Y-118000000D02*
X93000000Y-118000000D01*
X119000000Y-116000000D02*
X109000000Y-116000000D01*
X103000000Y-118000000D02*
G75*
G03*
X103000000Y-116000000I0J1000000D01*
G01*
X109000000Y-118000000D02*
X119000000Y-118000000D01*
X109000000Y-116000000D02*
G75*
G03*
X109000000Y-118000000I0J-1000000D01*
G01*
X103000000Y-116000000D02*
X93000000Y-116000000D01*
X122000000Y-131000000D02*
X122000000Y-121000000D01*
X124000000Y-147000000D02*
X124000000Y-137000000D01*
X122000000Y-131000000D02*
G75*
G03*
X124000000Y-131000000I1000000J0D01*
G01*
X122000000Y-137000000D02*
X122000000Y-147000000D01*
X124000000Y-137000000D02*
G75*
G03*
X122000000Y-137000000I-1000000J0D01*
G01*
X124000000Y-131000000D02*
X124000000Y-121000000D01*
X122000000Y-113000000D02*
X122000000Y-103000000D01*
X124000000Y-97000000D02*
X124000000Y-87000000D01*
X124000000Y-103000000D02*
G75*
G03*
X122000000Y-103000000I-1000000J0D01*
G01*
X122000000Y-87000000D02*
X122000000Y-97000000D01*
X122000000Y-97000000D02*
G75*
G03*
X124000000Y-97000000I1000000J0D01*
G01*
X124000000Y-113000000D02*
X124000000Y-103000000D01*
X122000000Y-63000000D02*
X122000000Y-53000000D01*
X124000000Y-79000000D02*
X124000000Y-69000000D01*
X122000000Y-63000000D02*
G75*
G03*
X124000000Y-63000000I1000000J0D01*
G01*
X122000000Y-69000000D02*
X122000000Y-79000000D01*
X124000000Y-69000000D02*
G75*
G03*
X122000000Y-69000000I-1000000J0D01*
G01*
X124000000Y-63000000D02*
X124000000Y-53000000D01*
X109000000Y-82000000D02*
X119000000Y-82000000D01*
X93000000Y-84000000D02*
X103000000Y-84000000D01*
X109000000Y-82000000D02*
G75*
G03*
X109000000Y-84000000I0J-1000000D01*
G01*
X103000000Y-82000000D02*
X93000000Y-82000000D01*
X103000000Y-84000000D02*
G75*
G03*
X103000000Y-82000000I0J1000000D01*
G01*
X109000000Y-84000000D02*
X119000000Y-84000000D01*
X143000000Y-82000000D02*
X153000000Y-82000000D01*
X127000000Y-84000000D02*
X137000000Y-84000000D01*
X143000000Y-82000000D02*
G75*
G03*
X143000000Y-84000000I0J-1000000D01*
G01*
X137000000Y-82000000D02*
X127000000Y-82000000D01*
X137000000Y-84000000D02*
G75*
G03*
X137000000Y-82000000I0J1000000D01*
G01*
X143000000Y-84000000D02*
X153000000Y-84000000D01*
X156000000Y-63000000D02*
X156000000Y-53000000D01*
X158000000Y-79000000D02*
X158000000Y-69000000D01*
X156000000Y-63000000D02*
G75*
G03*
X158000000Y-63000000I1000000J0D01*
G01*
X156000000Y-69000000D02*
X156000000Y-79000000D01*
X158000000Y-63000000D02*
X158000000Y-53000000D01*
X156000000Y-97000000D02*
X156000000Y-87000000D01*
X158000000Y-113000000D02*
X158000000Y-103000000D01*
X156000000Y-97000000D02*
G75*
G03*
X158000000Y-97000000I1000000J0D01*
G01*
X156000000Y-103000000D02*
X156000000Y-113000000D01*
X158000000Y-103000000D02*
G75*
G03*
X156000000Y-103000000I-1000000J0D01*
G01*
X158000000Y-97000000D02*
X158000000Y-87000000D01*
X156000000Y-131000000D02*
X156000000Y-121000000D01*
X158000000Y-147000000D02*
X158000000Y-137000000D01*
X156000000Y-131000000D02*
G75*
G03*
X158000000Y-131000000I1000000J0D01*
G01*
X156000000Y-137000000D02*
X156000000Y-147000000D01*
X158000000Y-137000000D02*
G75*
G03*
X156000000Y-137000000I-1000000J0D01*
G01*
X158000000Y-131000000D02*
X158000000Y-121000000D01*
X177000000Y-116000000D02*
X187000000Y-116000000D01*
X161000000Y-118000000D02*
X171000000Y-118000000D01*
X177000000Y-116000000D02*
G75*
G03*
X177000000Y-118000000I0J-1000000D01*
G01*
X171000000Y-116000000D02*
X161000000Y-116000000D01*
X171000000Y-118000000D02*
G75*
G03*
X171000000Y-116000000I0J1000000D01*
G01*
X177000000Y-118000000D02*
X187000000Y-118000000D01*
X161000000Y-84000000D02*
X171000000Y-84000000D01*
X171000000Y-82000000D02*
X161000000Y-82000000D01*
X177000000Y-82000000D02*
X187000000Y-82000000D01*
X177000000Y-84000000D02*
X187000000Y-84000000D01*
X171000000Y-84000000D02*
G75*
G03*
X171000000Y-82000000I0J1000000D01*
G01*
X177000000Y-82000000D02*
G75*
G03*
X177000000Y-84000000I0J-1000000D01*
G01*
D11*
X158000000Y-147000000D02*
G75*
G03*
X161000000Y-150000000I3000000J0D01*
G01*
X161000000Y-118000000D02*
G75*
G03*
X158000000Y-121000000I0J-3000000D01*
G01*
X187000000Y-150000000D02*
G75*
G03*
X190000000Y-147000000I0J3000000D01*
G01*
X161000000Y-150000000D02*
X187000000Y-150000000D01*
X190000000Y-121000000D02*
G75*
G03*
X187000000Y-118000000I-3000000J0D01*
G01*
X190000000Y-147000000D02*
X190000000Y-121000000D01*
X124000000Y-147000000D02*
G75*
G03*
X127000000Y-150000000I3000000J0D01*
G01*
X127000000Y-118000000D02*
G75*
G03*
X124000000Y-121000000I0J-3000000D01*
G01*
X153000000Y-150000000D02*
G75*
G03*
X156000000Y-147000000I0J3000000D01*
G01*
X127000000Y-150000000D02*
X153000000Y-150000000D01*
X156000000Y-121000000D02*
G75*
G03*
X153000000Y-118000000I-3000000J0D01*
G01*
X90000000Y-147000000D02*
G75*
G03*
X93000000Y-150000000I3000000J0D01*
G01*
X93000000Y-118000000D02*
G75*
G03*
X90000000Y-121000000I0J-3000000D01*
G01*
X119000000Y-150000000D02*
G75*
G03*
X122000000Y-147000000I0J3000000D01*
G01*
X90000000Y-121000000D02*
X90000000Y-147000000D01*
X93000000Y-150000000D02*
X119000000Y-150000000D01*
X122000000Y-121000000D02*
G75*
G03*
X119000000Y-118000000I-3000000J0D01*
G01*
X158000000Y-113000000D02*
G75*
G03*
X161000000Y-116000000I3000000J0D01*
G01*
X161000000Y-84000000D02*
G75*
G03*
X158000000Y-87000000I0J-3000000D01*
G01*
X187000000Y-116000000D02*
G75*
G03*
X190000000Y-113000000I0J3000000D01*
G01*
X190000000Y-87000000D02*
G75*
G03*
X187000000Y-84000000I-3000000J0D01*
G01*
X190000000Y-113000000D02*
X190000000Y-87000000D01*
X124000000Y-113000000D02*
G75*
G03*
X127000000Y-116000000I3000000J0D01*
G01*
X127000000Y-84000000D02*
G75*
G03*
X124000000Y-87000000I0J-3000000D01*
G01*
X153000000Y-116000000D02*
G75*
G03*
X156000000Y-113000000I0J3000000D01*
G01*
X156000000Y-87000000D02*
G75*
G03*
X153000000Y-84000000I-3000000J0D01*
G01*
X90000000Y-113000000D02*
G75*
G03*
X93000000Y-116000000I3000000J0D01*
G01*
X93000000Y-84000000D02*
G75*
G03*
X90000000Y-87000000I0J-3000000D01*
G01*
X119000000Y-116000000D02*
G75*
G03*
X122000000Y-113000000I0J3000000D01*
G01*
X90000000Y-87000000D02*
X90000000Y-113000000D01*
X122000000Y-87000000D02*
G75*
G03*
X119000000Y-84000000I-3000000J0D01*
G01*
X158000000Y-79000000D02*
G75*
G03*
X161000000Y-82000000I3000000J0D01*
G01*
X161000000Y-50000000D02*
G75*
G03*
X158000000Y-53000000I0J-3000000D01*
G01*
X187000000Y-50000000D02*
X161000000Y-50000000D01*
X187000000Y-82000000D02*
G75*
G03*
X190000000Y-79000000I0J3000000D01*
G01*
X190000000Y-53000000D02*
G75*
G03*
X187000000Y-50000000I-3000000J0D01*
G01*
X190000000Y-79000000D02*
X190000000Y-53000000D01*
X124000000Y-79000000D02*
G75*
G03*
X127000000Y-82000000I3000000J0D01*
G01*
X127000000Y-50000000D02*
G75*
G03*
X124000000Y-53000000I0J-3000000D01*
G01*
X153000000Y-50000000D02*
X127000000Y-50000000D01*
X153000000Y-82000000D02*
G75*
G03*
X156000000Y-79000000I0J3000000D01*
G01*
X156000000Y-53000000D02*
G75*
G03*
X153000000Y-50000000I-3000000J0D01*
G01*
X119000000Y-82000000D02*
G75*
G03*
X122000000Y-79000000I0J3000000D01*
G01*
X93000000Y-50000000D02*
G75*
G03*
X90000000Y-53000000I0J-3000000D01*
G01*
X119000000Y-50000000D02*
X93000000Y-50000000D01*
X90000000Y-79000000D02*
G75*
G03*
X93000000Y-82000000I3000000J0D01*
G01*
X90000000Y-53000000D02*
X90000000Y-79000000D01*
X122000000Y-53000000D02*
G75*
G03*
X119000000Y-50000000I-3000000J0D01*
G01*
M02*
