%TF.GenerationSoftware,KiCad,Pcbnew,7.0.5*%
%TF.CreationDate,2023-10-26T18:16:14+09:00*%
%TF.ProjectId,clover_timer_p,636c6f76-6572-45f7-9469-6d65725f702e,rev?*%
%TF.SameCoordinates,Original*%
%TF.FileFunction,Paste,Top*%
%TF.FilePolarity,Positive*%
%FSLAX46Y46*%
G04 Gerber Fmt 4.6, Leading zero omitted, Abs format (unit mm)*
G04 Created by KiCad (PCBNEW 7.0.5) date 2023-10-26 18:16:14*
%MOMM*%
%LPD*%
G01*
G04 APERTURE LIST*
G04 Aperture macros list*
%AMRoundRect*
0 Rectangle with rounded corners*
0 $1 Rounding radius*
0 $2 $3 $4 $5 $6 $7 $8 $9 X,Y pos of 4 corners*
0 Add a 4 corners polygon primitive as box body*
4,1,4,$2,$3,$4,$5,$6,$7,$8,$9,$2,$3,0*
0 Add four circle primitives for the rounded corners*
1,1,$1+$1,$2,$3*
1,1,$1+$1,$4,$5*
1,1,$1+$1,$6,$7*
1,1,$1+$1,$8,$9*
0 Add four rect primitives between the rounded corners*
20,1,$1+$1,$2,$3,$4,$5,0*
20,1,$1+$1,$4,$5,$6,$7,0*
20,1,$1+$1,$6,$7,$8,$9,0*
20,1,$1+$1,$8,$9,$2,$3,0*%
G04 Aperture macros list end*
%ADD10RoundRect,1.125000X-2.625000X-8.875000X2.625000X-8.875000X2.625000X8.875000X-2.625000X8.875000X0*%
%ADD11RoundRect,0.150000X-0.675000X-0.150000X0.675000X-0.150000X0.675000X0.150000X-0.675000X0.150000X0*%
G04 APERTURE END LIST*
D10*
%TO.C,J3*%
X132750000Y-60500000D03*
%TD*%
D11*
%TO.C,IC9*%
X184225000Y-135095000D03*
X184225000Y-136365000D03*
X184225000Y-137635000D03*
X184225000Y-138905000D03*
X178975000Y-138905000D03*
X178975000Y-137635000D03*
X178975000Y-136365000D03*
X178975000Y-135095000D03*
%TD*%
D10*
%TO.C,J17*%
X166750000Y-128500000D03*
%TD*%
D11*
%TO.C,IC8*%
X150225000Y-135095000D03*
X150225000Y-136365000D03*
X150225000Y-137635000D03*
X150225000Y-138905000D03*
X144975000Y-138905000D03*
X144975000Y-137635000D03*
X144975000Y-136365000D03*
X144975000Y-135095000D03*
%TD*%
D10*
%TO.C,J15*%
X132750000Y-128500000D03*
%TD*%
D11*
%TO.C,IC7*%
X116225000Y-135095000D03*
X116225000Y-136365000D03*
X116225000Y-137635000D03*
X116225000Y-138905000D03*
X110975000Y-138905000D03*
X110975000Y-137635000D03*
X110975000Y-136365000D03*
X110975000Y-135095000D03*
%TD*%
D10*
%TO.C,J13*%
X98750000Y-128500000D03*
%TD*%
D11*
%TO.C,IC6*%
X184225000Y-101095000D03*
X184225000Y-102365000D03*
X184225000Y-103635000D03*
X184225000Y-104905000D03*
X178975000Y-104905000D03*
X178975000Y-103635000D03*
X178975000Y-102365000D03*
X178975000Y-101095000D03*
%TD*%
D10*
%TO.C,J11*%
X166750000Y-94500000D03*
%TD*%
D11*
%TO.C,IC5*%
X150225000Y-101095000D03*
X150225000Y-102365000D03*
X150225000Y-103635000D03*
X150225000Y-104905000D03*
X144975000Y-104905000D03*
X144975000Y-103635000D03*
X144975000Y-102365000D03*
X144975000Y-101095000D03*
%TD*%
D10*
%TO.C,J9*%
X132750000Y-94500000D03*
%TD*%
D11*
%TO.C,IC4*%
X116225000Y-101095000D03*
X116225000Y-102365000D03*
X116225000Y-103635000D03*
X116225000Y-104905000D03*
X110975000Y-104905000D03*
X110975000Y-103635000D03*
X110975000Y-102365000D03*
X110975000Y-101095000D03*
%TD*%
D10*
%TO.C,J7*%
X98750000Y-94500000D03*
%TD*%
D11*
%TO.C,IC3*%
X184225000Y-67095000D03*
X184225000Y-68365000D03*
X184225000Y-69635000D03*
X184225000Y-70905000D03*
X178975000Y-70905000D03*
X178975000Y-69635000D03*
X178975000Y-68365000D03*
X178975000Y-67095000D03*
%TD*%
D10*
%TO.C,J5*%
X166750000Y-60500000D03*
%TD*%
D11*
%TO.C,IC2*%
X150225000Y-67095000D03*
X150225000Y-68365000D03*
X150225000Y-69635000D03*
X150225000Y-70905000D03*
X144975000Y-70905000D03*
X144975000Y-69635000D03*
X144975000Y-68365000D03*
X144975000Y-67095000D03*
%TD*%
%TO.C,IC1*%
X110975000Y-67095000D03*
X110975000Y-68365000D03*
X110975000Y-69635000D03*
X110975000Y-70905000D03*
X116225000Y-70905000D03*
X116225000Y-69635000D03*
X116225000Y-68365000D03*
X116225000Y-67095000D03*
%TD*%
D10*
%TO.C,J1*%
X98750000Y-60500000D03*
%TD*%
M02*
